<svg width="200" height="200" viewBox="0 0 200 200" fill="none" xmlns="http://www.w3.org/2000/svg">
    <!-- Background circle with gradient -->
    <defs>
        <linearGradient id="grad1" x1="0%" y1="0%" x2="100%" y2="100%">
            <stop offset="0%" style="stop-color:#1a1a1a;stop-opacity:1" />
            <stop offset="100%" style="stop-color:#2a2a2a;stop-opacity:1" />
        </linearGradient>
    </defs>
    
    <circle cx="100" cy="100" r="95" fill="url(#grad1)" stroke="#00FFFF" stroke-width="3">
        <animate attributeName="stroke-dasharray" from="0 600" to="600 600" dur="2s" />
    </circle>
    
    <!-- Animated question mark -->
    <path d="M85 140V125H115V140H85ZM100 115C95 115 90.8333 113.667 87.5 111C84.1667 108.333 82.3333 104.667 82 100H97C97 101.333 97.5 102.5 98.5 103.5C99.5 104.5 100.667 105 102 105C103.333 105 104.5 104.5 105.5 103.5C106.5 102.5 107 101.333 107 100C107 98.6667 106.5 97.5 105.5 96.5C104.5 95.5 103.333 95 102 95H100V80H102C106.667 80 110.667 81.6667 114 85C117.333 88.3333 119 92.3333 119 97C119 101.667 117.333 105.667 114 109C110.667 112.333 106.667 114 102 114H100V115Z" fill="#FF007F">
        <animate attributeName="opacity" values="0.6;1;0.6" dur="2s" repeatCount="indefinite"/>
    </path>
    
    <!-- Decorative elements with gradients -->
    <circle cx="60" cy="60" r="12" fill="#00FF00" opacity="0.8">
        <animate attributeName="r" values="10;12;10" dur="2s" repeatCount="indefinite"/>
        <animate attributeName="opacity" values="0.6;1;0.6" dur="2s" repeatCount="indefinite"/>
    </circle>
    
    <circle cx="140" cy="60" r="12" fill="#00FF00" opacity="0.8">
        <animate attributeName="r" values="10;12;10" dur="2s" repeatCount="indefinite" begin="0.5s"/>
        <animate attributeName="opacity" values="0.6;1;0.6" dur="2s" repeatCount="indefinite" begin="0.5s"/>
    </circle>
    
    <circle cx="100" cy="160" r="12" fill="#00FF00" opacity="0.8">
        <animate attributeName="r" values="10;12;10" dur="2s" repeatCount="indefinite" begin="1s"/>
        <animate attributeName="opacity" values="0.6;1;0.6" dur="2s" repeatCount="indefinite" begin="1s"/>
    </circle>
    
    <!-- Animated connecting lines -->
    <line x1="70" y1="60" x2="130" y2="60" stroke="#00FFFF" stroke-width="2" opacity="0.7">
        <animate attributeName="opacity" values="0.5;1;0.5" dur="3s" repeatCount="indefinite"/>
    </line>
    
    <line x1="60" y1="70" x2="100" y2="150" stroke="#00FFFF" stroke-width="2" opacity="0.7">
        <animate attributeName="opacity" values="0.5;1;0.5" dur="3s" repeatCount="indefinite" begin="1s"/>
    </line>
    
    <line x1="140" y1="70" x2="100" y2="150" stroke="#00FFFF" stroke-width="2" opacity="0.7">
        <animate attributeName="opacity" values="0.5;1;0.5" dur="3s" repeatCount="indefinite" begin="2s"/>
    </line>
    
    <!-- Additional decorative elements -->
    <circle cx="100" cy="100" r="40" stroke="#FF007F" stroke-width="2" opacity="0.3" fill="none">
        <animate attributeName="r" values="35;40;35" dur="4s" repeatCount="indefinite"/>
    </circle>
</svg>