<svg width="200" height="200" viewBox="0 0 200 200" fill="none" xmlns="http://www.w3.org/2000/svg">
    <!-- Background -->
    <circle cx="100" cy="100" r="95" fill="#1a1a1a" stroke="#7F00FF" stroke-width="3"/>
    
    <!-- Decorative elements -->
    <path d="M100 40 L120 70 L80 70 Z" fill="#E100FF" opacity="0.8">
        <animate attributeName="opacity" values="0.8;1;0.8" dur="2s" repeatCount="indefinite"/>
    </path>
    
    <!-- Question mark -->
    <path d="M85 140V125H115V140H85ZM100 115C95 115 90.8333 113.667 87.5 111C84.1667 108.333 82.3333 104.667 82 100H97C97 101.333 97.5 102.5 98.5 103.5C99.5 104.5 100.667 105 102 105C103.333 105 104.5 104.5 105.5 103.5C106.5 102.5 107 101.333 107 100C107 98.6667 106.5 97.5 105.5 96.5C104.5 95.5 103.333 95 102 95H100V80H102C106.667 80 110.667 81.6667 114 85C117.333 88.3333 119 92.3333 119 97C119 101.667 117.333 105.667 114 109C110.667 112.333 106.667 114 102 114H100V115Z" fill="#98FF98"/>
    
    <!-- Animated circles -->
    <circle cx="60" cy="60" r="12" fill="#7F00FF" opacity="0.7">
        <animate attributeName="r" values="12;14;12" dur="2s" repeatCount="indefinite"/>
    </circle>
    <circle cx="140" cy="60" r="12" fill="#E100FF" opacity="0.7">
        <animate attributeName="r" values="12;14;12" dur="2s" repeatCount="indefinite" begin="0.5s"/>
    </circle>
    <circle cx="100" cy="160" r="12" fill="#98FF98" opacity="0.7">
        <animate attributeName="r" values="12;14;12" dur="2s" repeatCount="indefinite" begin="1s"/>
    </circle>
    
    <!-- Connecting lines with gradient -->
    <line x1="70" y1="60" x2="130" y2="60" stroke="url(#gradient1)" stroke-width="2" opacity="0.6"/>
    <line x1="60" y1="70" x2="100" y2="150" stroke="url(#gradient2)" stroke-width="2" opacity="0.6"/>
    <line x1="140" y1="70" x2="100" y2="150" stroke="url(#gradient3)" stroke-width="2" opacity="0.6"/>
    
    <!-- Gradients -->
    <defs>
        <linearGradient id="gradient1" x1="70" y1="60" x2="130" y2="60">
            <stop offset="0%" stop-color="#7F00FF"/>
            <stop offset="100%" stop-color="#E100FF"/>
        </linearGradient>
        <linearGradient id="gradient2" x1="60" y1="70" x2="100" y2="150">
            <stop offset="0%" stop-color="#7F00FF"/>
            <stop offset="100%" stop-color="#98FF98"/>
        </linearGradient>
        <linearGradient id="gradient3" x1="140" y1="70" x2="100" y2="150">
            <stop offset="0%" stop-color="#E100FF"/>
            <stop offset="100%" stop-color="#98FF98"/>
        </linearGradient>
    </defs>
</svg>